<mxfile host="app.diagrams.net" modified="2023-05-24T16:20:50.158Z" agent="Mozilla/5.0 (X11; Ubuntu; Linux x86_64; rv:109.0) Gecko/20100101 Firefox/113.0" etag="z1RPVwaqfSIRnLPxlr28" version="21.3.2" type="device">
  <diagram name="Page-1" id="2YBvvXClWsGukQMizWep">
    <mxGraphModel dx="1285" dy="795" grid="1" gridSize="10" guides="1" tooltips="1" connect="1" arrows="1" fold="1" page="1" pageScale="1" pageWidth="850" pageHeight="1100" background="#ffffff" math="0" shadow="0">
      <root>
        <mxCell id="0" />
        <mxCell id="1" parent="0" />
        <mxCell id="xSgBkyLt8bNH0rPEXd5p-5" style="edgeStyle=elbowEdgeStyle;rounded=0;orthogonalLoop=1;jettySize=auto;html=1;elbow=vertical;curved=0;strokeColor=#82b366;fillColor=#d5e8d4;" edge="1" parent="1" source="aM9ryv3xv72pqoxQDRHE-6">
          <mxGeometry relative="1" as="geometry">
            <mxPoint x="555.5" y="285" as="targetPoint" />
            <mxPoint x="381" y="285" as="sourcePoint" />
          </mxGeometry>
        </mxCell>
        <mxCell id="aM9ryv3xv72pqoxQDRHE-7" value="" style="html=1;verticalAlign=bottom;endArrow=classic;edgeStyle=elbowEdgeStyle;elbow=vertical;curved=0;rounded=0;fillColor=#d5e8d4;strokeColor=#82b366;endFill=1;" parent="1" source="aM9ryv3xv72pqoxQDRHE-1" target="aM9ryv3xv72pqoxQDRHE-6" edge="1">
          <mxGeometry relative="1" as="geometry">
            <mxPoint x="195" y="246" as="sourcePoint" />
            <Array as="points">
              <mxPoint x="327" y="246" />
            </Array>
            <mxPoint x="405" y="246" as="targetPoint" />
          </mxGeometry>
        </mxCell>
        <mxCell id="aM9ryv3xv72pqoxQDRHE-8" value="" style="html=1;verticalAlign=bottom;endArrow=open;dashed=1;endSize=8;edgeStyle=elbowEdgeStyle;elbow=vertical;curved=0;rounded=0;fillColor=#d5e8d4;strokeColor=#82b366;" parent="1" source="aM9ryv3xv72pqoxQDRHE-6" target="aM9ryv3xv72pqoxQDRHE-2" edge="1">
          <mxGeometry relative="1" as="geometry">
            <mxPoint x="195" y="359" as="targetPoint" />
            <Array as="points">
              <mxPoint x="337" y="359" />
            </Array>
            <mxPoint x="405" y="359" as="sourcePoint" />
          </mxGeometry>
        </mxCell>
        <mxCell id="aM9ryv3xv72pqoxQDRHE-1" value="&lt;div&gt;&lt;font color=&quot;#000000&quot;&gt;:View&lt;/font&gt;&lt;/div&gt;&lt;div&gt;&lt;font color=&quot;#000000&quot;&gt;AccettazioneProfessionista&lt;br&gt;&lt;/font&gt;&lt;/div&gt;" style="shape=umlLifeline;perimeter=lifelinePerimeter;whiteSpace=wrap;html=1;container=0;dropTarget=0;collapsible=0;recursiveResize=0;outlineConnect=0;portConstraint=eastwest;newEdgeStyle={&quot;edgeStyle&quot;:&quot;elbowEdgeStyle&quot;,&quot;elbow&quot;:&quot;vertical&quot;,&quot;curved&quot;:0,&quot;rounded&quot;:0};fillColor=#f8cecc;strokeColor=#7EA6E0;size=50;" parent="1" vertex="1">
          <mxGeometry x="101" y="90" width="157" height="350" as="geometry" />
        </mxCell>
        <mxCell id="aM9ryv3xv72pqoxQDRHE-2" value="" style="html=1;points=[];perimeter=orthogonalPerimeter;outlineConnect=0;targetShapes=umlLifeline;portConstraint=eastwest;newEdgeStyle={&quot;edgeStyle&quot;:&quot;elbowEdgeStyle&quot;,&quot;elbow&quot;:&quot;vertical&quot;,&quot;curved&quot;:0,&quot;rounded&quot;:0};fillColor=#FFFFFF;strokeColor=#000000;" parent="aM9ryv3xv72pqoxQDRHE-1" vertex="1">
          <mxGeometry x="73" y="110" width="10" height="200" as="geometry" />
        </mxCell>
        <mxCell id="aM9ryv3xv72pqoxQDRHE-5" value="&lt;div&gt;&lt;font color=&quot;#000000&quot;&gt;:GestioneAssistenza&lt;/font&gt;&lt;/div&gt;&lt;div&gt;&lt;font color=&quot;#000000&quot;&gt;Controller&lt;br&gt;&lt;/font&gt;&lt;/div&gt;" style="shape=umlLifeline;perimeter=lifelinePerimeter;whiteSpace=wrap;html=1;container=0;dropTarget=0;collapsible=0;recursiveResize=0;outlineConnect=0;portConstraint=eastwest;newEdgeStyle={&quot;edgeStyle&quot;:&quot;elbowEdgeStyle&quot;,&quot;elbow&quot;:&quot;vertical&quot;,&quot;curved&quot;:0,&quot;rounded&quot;:0};fillColor=#d5e8d4;strokeColor=#7EA6E0;size=50;" parent="1" vertex="1">
          <mxGeometry x="320" y="90" width="120" height="350" as="geometry" />
        </mxCell>
        <mxCell id="aM9ryv3xv72pqoxQDRHE-6" value="" style="html=1;points=[];perimeter=orthogonalPerimeter;outlineConnect=0;targetShapes=umlLifeline;portConstraint=eastwest;newEdgeStyle={&quot;edgeStyle&quot;:&quot;elbowEdgeStyle&quot;,&quot;elbow&quot;:&quot;vertical&quot;,&quot;curved&quot;:0,&quot;rounded&quot;:0};fillColor=#FFFFFF;strokeColor=#000000;" parent="aM9ryv3xv72pqoxQDRHE-5" vertex="1">
          <mxGeometry x="55" y="124" width="10" height="170" as="geometry" />
        </mxCell>
        <mxCell id="xSgBkyLt8bNH0rPEXd5p-9" style="edgeStyle=orthogonalEdgeStyle;rounded=0;orthogonalLoop=1;jettySize=auto;html=1;strokeColor=#82b366;fillColor=#d5e8d4;dashed=1;endArrow=open;endFill=0;" edge="1" parent="1">
          <mxGeometry relative="1" as="geometry">
            <mxPoint x="559.5" y="349" as="sourcePoint" />
            <mxPoint x="385" y="331" as="targetPoint" />
            <Array as="points">
              <mxPoint x="560" y="331" />
            </Array>
          </mxGeometry>
        </mxCell>
        <mxCell id="xSgBkyLt8bNH0rPEXd5p-7" value="&lt;font style=&quot;background-color: rgb(255, 255, 255);&quot; color=&quot;#000000&quot;&gt;accettaProfessionista()&lt;/font&gt;" style="text;html=1;align=center;verticalAlign=middle;resizable=0;points=[];autosize=1;strokeColor=none;fillColor=none;" vertex="1" parent="1">
          <mxGeometry x="207" y="232" width="150" height="30" as="geometry" />
        </mxCell>
        <mxCell id="xSgBkyLt8bNH0rPEXd5p-8" value="&lt;font style=&quot;background-color: rgb(255, 255, 255);&quot; color=&quot;#000000&quot;&gt;ok&lt;/font&gt;" style="text;html=1;align=center;verticalAlign=middle;resizable=0;points=[];autosize=1;strokeColor=none;fillColor=none;" vertex="1" parent="1">
          <mxGeometry x="265" y="345" width="40" height="30" as="geometry" />
        </mxCell>
        <mxCell id="xSgBkyLt8bNH0rPEXd5p-10" value="&lt;font style=&quot;font-size: 10px; background-color: rgb(255, 255, 255);&quot; color=&quot;#000000&quot;&gt;sbloccaUtente()&lt;/font&gt;" style="text;html=1;align=center;verticalAlign=middle;resizable=0;points=[];autosize=1;strokeColor=none;fillColor=none;" vertex="1" parent="1">
          <mxGeometry x="418" y="271" width="90" height="30" as="geometry" />
        </mxCell>
        <mxCell id="xSgBkyLt8bNH0rPEXd5p-13" value="&lt;font style=&quot;background-color: rgb(255, 255, 255);&quot; color=&quot;#000000&quot;&gt;ok&lt;/font&gt;" style="text;html=1;align=center;verticalAlign=middle;resizable=0;points=[];autosize=1;strokeColor=none;fillColor=none;" vertex="1" parent="1">
          <mxGeometry x="443" y="317" width="40" height="30" as="geometry" />
        </mxCell>
        <mxCell id="xSgBkyLt8bNH0rPEXd5p-43" value="&lt;font color=&quot;#000000&quot;&gt;Assistenza&lt;/font&gt;" style="shape=umlLifeline;perimeter=lifelinePerimeter;whiteSpace=wrap;html=1;container=0;dropTarget=0;collapsible=0;recursiveResize=0;outlineConnect=0;portConstraint=eastwest;newEdgeStyle={&quot;edgeStyle&quot;:&quot;elbowEdgeStyle&quot;,&quot;elbow&quot;:&quot;vertical&quot;,&quot;curved&quot;:0,&quot;rounded&quot;:0};fillColor=#f5f5f5;strokeColor=#7EA6E0;fontColor=#333333;size=44;" vertex="1" parent="1">
          <mxGeometry x="-58.25" y="94" width="116.25" height="346" as="geometry" />
        </mxCell>
        <mxCell id="xSgBkyLt8bNH0rPEXd5p-45" value="" style="shape=actor;whiteSpace=wrap;html=1;fontFamily=Helvetica;fontSize=12;fillColor=#000000;" vertex="1" parent="1">
          <mxGeometry x="-23" y="27" width="46.5" height="60" as="geometry" />
        </mxCell>
        <mxCell id="xSgBkyLt8bNH0rPEXd5p-46" value="" style="html=1;verticalAlign=bottom;endArrow=open;edgeStyle=elbowEdgeStyle;elbow=vertical;curved=0;rounded=0;fillColor=#d5e8d4;strokeColor=#82b366;endFill=0;" edge="1" parent="1">
          <mxGeometry relative="1" as="geometry">
            <mxPoint y="180" as="sourcePoint" />
            <Array as="points">
              <mxPoint x="130" y="180" />
            </Array>
            <mxPoint x="178" y="180" as="targetPoint" />
          </mxGeometry>
        </mxCell>
        <mxCell id="xSgBkyLt8bNH0rPEXd5p-47" value="&lt;font style=&quot;background-color: rgb(255, 255, 255);&quot; color=&quot;#000000&quot;&gt;show()&lt;/font&gt;" style="text;html=1;align=center;verticalAlign=middle;resizable=0;points=[];autosize=1;strokeColor=none;fillColor=none;fontSize=12;fontFamily=Helvetica;fontColor=default;" vertex="1" parent="1">
          <mxGeometry x="50" y="166" width="60" height="30" as="geometry" />
        </mxCell>
        <mxCell id="xSgBkyLt8bNH0rPEXd5p-48" value="" style="html=1;verticalAlign=bottom;endArrow=open;edgeStyle=elbowEdgeStyle;elbow=vertical;curved=0;rounded=0;fillColor=#d5e8d4;strokeColor=#82b366;endFill=0;" edge="1" parent="1">
          <mxGeometry relative="1" as="geometry">
            <mxPoint y="230" as="sourcePoint" />
            <Array as="points">
              <mxPoint x="136" y="229.5" />
            </Array>
            <mxPoint x="174" y="230" as="targetPoint" />
          </mxGeometry>
        </mxCell>
        <mxCell id="xSgBkyLt8bNH0rPEXd5p-49" value="&lt;font style=&quot;background-color: rgb(255, 255, 255);&quot; color=&quot;#000000&quot;&gt;accetta&lt;/font&gt;" style="text;html=1;align=center;verticalAlign=middle;resizable=0;points=[];autosize=1;strokeColor=none;fillColor=none;fontSize=12;fontFamily=Helvetica;fontColor=default;" vertex="1" parent="1">
          <mxGeometry x="50" y="215" width="60" height="30" as="geometry" />
        </mxCell>
        <mxCell id="xSgBkyLt8bNH0rPEXd5p-52" value="&lt;font color=&quot;#000000&quot;&gt;:Professionista&lt;/font&gt;" style="shape=umlLifeline;perimeter=lifelinePerimeter;whiteSpace=wrap;html=1;container=0;dropTarget=0;collapsible=0;recursiveResize=0;outlineConnect=0;portConstraint=eastwest;newEdgeStyle={&quot;edgeStyle&quot;:&quot;elbowEdgeStyle&quot;,&quot;elbow&quot;:&quot;vertical&quot;,&quot;curved&quot;:0,&quot;rounded&quot;:0};fillColor=#dae8fc;strokeColor=#6c8ebf;size=50;" vertex="1" parent="1">
          <mxGeometry x="500" y="90" width="120" height="350" as="geometry" />
        </mxCell>
        <mxCell id="xSgBkyLt8bNH0rPEXd5p-53" value="" style="html=1;points=[];perimeter=orthogonalPerimeter;outlineConnect=0;targetShapes=umlLifeline;portConstraint=eastwest;newEdgeStyle={&quot;edgeStyle&quot;:&quot;elbowEdgeStyle&quot;,&quot;elbow&quot;:&quot;vertical&quot;,&quot;curved&quot;:0,&quot;rounded&quot;:0};fillColor=#FFFFFF;strokeColor=#000000;" vertex="1" parent="xSgBkyLt8bNH0rPEXd5p-52">
          <mxGeometry x="55" y="140" width="10" height="140" as="geometry" />
        </mxCell>
        <mxCell id="xSgBkyLt8bNH0rPEXd5p-54" value="" style="html=1;verticalAlign=bottom;endArrow=open;dashed=1;endSize=8;edgeStyle=elbowEdgeStyle;elbow=vertical;curved=0;rounded=0;fillColor=#d5e8d4;strokeColor=#82b366;" edge="1" parent="1">
          <mxGeometry relative="1" as="geometry">
            <mxPoint x="-0.625" y="380" as="targetPoint" />
            <Array as="points">
              <mxPoint x="155" y="380" />
            </Array>
            <mxPoint x="170" y="380" as="sourcePoint" />
          </mxGeometry>
        </mxCell>
        <mxCell id="xSgBkyLt8bNH0rPEXd5p-55" value="&lt;font style=&quot;background-color: rgb(255, 255, 255);&quot; color=&quot;#000000&quot;&gt;ok&lt;/font&gt;" style="text;html=1;align=center;verticalAlign=middle;resizable=0;points=[];autosize=1;strokeColor=none;fillColor=none;fontSize=12;fontFamily=Helvetica;fontColor=default;" vertex="1" parent="1">
          <mxGeometry x="65" y="366" width="40" height="30" as="geometry" />
        </mxCell>
        <mxCell id="xSgBkyLt8bNH0rPEXd5p-57" value="" style="endArrow=none;dashed=1;html=1;rounded=0;labelBackgroundColor=default;strokeColor=#B9E0A5;fontFamily=Helvetica;fontSize=12;fontColor=default;fillColor=#d5e8d4;shape=connector;startArrow=open;startFill=0;exitX=1;exitY=0.5;exitDx=0;exitDy=0;" edge="1" parent="1" source="xSgBkyLt8bNH0rPEXd5p-58">
          <mxGeometry width="50" height="50" relative="1" as="geometry">
            <mxPoint x="-110" y="420" as="sourcePoint" />
            <mxPoint x="-0.625" y="420" as="targetPoint" />
          </mxGeometry>
        </mxCell>
        <mxCell id="xSgBkyLt8bNH0rPEXd5p-58" value="" style="ellipse;whiteSpace=wrap;html=1;aspect=fixed;fontFamily=Helvetica;fontSize=12;fillColor=#000000;" vertex="1" parent="1">
          <mxGeometry x="-180" y="405" width="30" height="30" as="geometry" />
        </mxCell>
        <mxCell id="xSgBkyLt8bNH0rPEXd5p-59" value="&lt;font color=&quot;#000000&quot;&gt;Professionista accettato&lt;/font&gt;" style="text;html=1;align=center;verticalAlign=middle;resizable=0;points=[];autosize=1;strokeColor=none;fillColor=none;fontSize=12;fontFamily=Helvetica;fontColor=default;" vertex="1" parent="1">
          <mxGeometry x="-150" y="390" width="150" height="30" as="geometry" />
        </mxCell>
      </root>
    </mxGraphModel>
  </diagram>
</mxfile>
